<svg width="270" height="34" viewBox="0 0 1125 142" version="1.1" xmlns="http://www.w3.org/2000/svg" xmlns:xlink="http://www.w3.org/1999/xlink" xml:space="preserve" xmlns:serif="http://www.serif.com/" style="fill-rule:evenodd;clip-rule:evenodd;stroke-linejoin:round;stroke-miterlimit:2;"><g><rect x="957.734" y="119.35" width="17.233" height="18.15" style="fill:#f13024;fill-rule:nonzero;"/><g><rect x="172.263" y="10.418" width="22.259" height="127.885" style="fill:#fff;fill-rule:nonzero;"/><path d="M216.391,87.149c0,-10.182 2.246,-19.198 6.737,-27.049c4.491,-7.851 10.609,-13.954 18.354,-18.309c7.745,-4.354 16.304,-6.532 25.676,-6.532c8.461,0 15.849,1.564 22.162,4.692c6.313,3.128 11.357,7.023 15.132,11.685l0,-14.721l22.455,0l0,101.388l-22.455,-0l0,-15.089c-3.775,4.784 -8.916,8.771 -15.425,11.961c-6.508,3.189 -13.928,4.784 -22.259,4.784c-9.242,-0 -17.704,-2.239 -25.384,-6.716c-7.68,-4.478 -13.765,-10.734 -18.256,-18.769c-4.491,-8.035 -6.737,-17.143 -6.737,-27.325Zm88.061,0.368c0,-6.992 -1.529,-13.064 -4.588,-18.217c-3.059,-5.152 -7.062,-9.077 -12.008,-11.776c-4.947,-2.699 -10.284,-4.048 -16.012,-4.048c-5.727,-0 -11.064,1.319 -16.011,3.956c-4.946,2.637 -8.949,6.502 -12.008,11.592c-3.059,5.091 -4.589,11.133 -4.589,18.125c0,6.992 1.53,13.126 4.589,18.401c3.059,5.274 7.094,9.292 12.106,12.052c5.012,2.76 10.316,4.14 15.913,4.14c5.728,0 11.065,-1.349 16.012,-4.048c4.946,-2.699 8.949,-6.655 12.008,-11.868c3.059,-5.214 4.588,-11.317 4.588,-18.309Z" style="fill:#fff;fill-rule:nonzero;"/><path d="M410.477,35.259c8.461,0 16.044,1.656 22.748,4.968c6.704,3.312 11.943,8.219 15.718,14.721c3.775,6.501 5.662,14.352 5.662,23.553l0,59.802l-22.064,-0l0,-56.674c0,-9.078 -2.408,-16.039 -7.224,-20.885c-4.817,-4.845 -11.39,-7.268 -19.721,-7.268c-8.331,-0 -14.937,2.423 -19.819,7.268c-4.881,4.846 -7.322,11.807 -7.322,20.885l0,56.674l-22.259,-0l-0,-101.388l22.259,0l0,11.593c3.645,-4.171 8.298,-7.422 13.961,-9.753c5.662,-2.33 11.683,-3.496 18.061,-3.496Z" style="fill:#fff;fill-rule:nonzero;"/><path d="M653.573,11.89l-0,126.413l-8.787,-0l0,-109.116l-51.548,109.116l-7.029,-0l-51.743,-109.116l-0,109.116l-8.787,-0l0,-126.413l9.373,0l54.672,115.556l54.672,-115.556l9.177,0Z" style="fill:#fff;fill-rule:nonzero;"/><path d="M680.323,88.253c0,-10.304 2.18,-19.321 6.541,-27.049c4.361,-7.728 10.414,-13.678 18.159,-17.849c7.745,-4.17 16.565,-6.256 26.458,-6.256c11.194,0 20.697,2.576 28.507,7.729c7.81,5.152 13.278,11.715 16.402,19.688l-0,-26.129l8.786,0l0,99.916l-8.786,-0l-0,-26.313c-3.124,8.096 -8.624,14.751 -16.499,19.965c-7.876,5.213 -17.346,7.82 -28.41,7.82c-9.893,-0 -18.713,-2.116 -26.458,-6.348c-7.745,-4.233 -13.798,-10.243 -18.159,-18.033c-4.361,-7.79 -6.541,-16.837 -6.541,-27.141Zm96.067,0c-0,-8.71 -1.92,-16.407 -5.76,-23.093c-3.84,-6.685 -9.08,-11.838 -15.719,-15.456c-6.638,-3.619 -14.058,-5.429 -22.259,-5.429c-8.591,0 -16.141,1.749 -22.65,5.245c-6.508,3.496 -11.585,8.556 -15.23,15.18c-3.645,6.624 -5.467,14.475 -5.467,23.553c-0,9.078 1.822,16.929 5.467,23.553c3.645,6.624 8.754,11.715 15.328,15.272c6.574,3.558 14.091,5.337 22.552,5.337c8.201,-0 15.653,-1.81 22.357,-5.429c6.704,-3.618 11.943,-8.771 15.718,-15.456c3.775,-6.686 5.663,-14.445 5.663,-23.277Z" style="fill:#fff;fill-rule:nonzero;"/><path d="M821.69,16.122c-2.083,0 -3.841,-0.644 -5.272,-1.932c-1.432,-1.288 -2.148,-3.036 -2.148,-5.244c-0,-2.085 0.716,-3.803 2.148,-5.152c1.431,-1.349 3.189,-2.024 5.272,-2.024c2.082,-0 3.84,0.675 5.271,2.024c1.432,1.349 2.148,3.067 2.148,5.152c0,2.208 -0.716,3.956 -2.148,5.244c-1.431,1.288 -3.189,1.932 -5.271,1.932Zm4.295,22.265l0,99.916l-8.786,-0l-0,-99.916l8.786,0Z" style="fill:#fff;fill-rule:nonzero;"/><path d="M906.041,36.363c12.626,0 22.91,3.65 30.85,10.949c7.941,7.299 11.911,18.124 11.911,32.477l0,58.514l-8.591,-0l-0,-57.962c-0,-11.899 -3.189,-21.008 -9.568,-27.325c-6.378,-6.318 -15.035,-9.477 -25.969,-9.477c-11.455,0 -20.6,3.435 -27.434,10.305c-6.834,6.869 -10.251,17.051 -10.251,30.545l0,53.914l-8.786,-0l-0,-99.916l8.786,0l0,21.161c2.994,-7.483 7.973,-13.218 14.937,-17.205c6.965,-3.986 15.003,-5.98 24.115,-5.98Z" style="fill:#fff;fill-rule:nonzero;"/></g></g></svg>